<?xml version="1.0" standalone="no"?>
<!DOCTYPE svg PUBLIC "-//W3C//DTD SVG 20010904//EN"
 "http://www.w3.org/TR/2001/REC-SVG-20010904/DTD/svg10.dtd">
<svg version="1.0" xmlns="http://www.w3.org/2000/svg"
 width="256.000000pt" height="256.000000pt" viewBox="0 0 256.000000 256.000000"
 preserveAspectRatio="xMidYMid meet">

<g transform="translate(0.000000,256.000000) scale(0.100000,-0.100000)"
fill="#000000" stroke="none">
<path d="M890 1900 c-179 -104 -329 -190 -334 -190 -5 0 -89 46 -185 101 -97
56 -179 104 -183 106 -5 2 -8 -284 -8 -635 l0 -640 538 -310 c295 -171 544
-314 553 -317 11 -4 203 102 555 305 297 171 542 315 547 319 4 4 6 294 5 644
l-3 636 -165 -95 c-91 -53 -175 -101 -187 -106 -21 -10 -59 10 -663 360 -24
13 -24 13 -5 -2 11 -9 161 -98 333 -197 l312 -181 0 -379 c0 -208 -2 -379 -4
-379 -3 0 -58 31 -123 69 l-118 69 -3 151 c-2 114 -6 153 -16 157 -14 6 -304
-159 -323 -184 -16 -19 -18 -367 -3 -377 5 -3 69 29 141 71 127 74 133 76 158
62 200 -115 223 -131 206 -140 -9 -6 -157 -91 -327 -189 l-311 -180 -323 187
c-178 103 -324 190 -324 193 1 7 233 141 246 141 4 0 63 -32 130 -70 66 -39
126 -70 133 -70 8 0 11 54 11 188 l0 188 -160 92 c-87 51 -162 92 -165 92 -3
0 -5 -69 -5 -154 l0 -154 -125 -71 c-69 -39 -127 -71 -130 -71 -3 0 -4 171 -3
381 l3 380 320 185 c282 164 351 205 335 203 -3 0 -151 -85 -330 -189z"/>
<path d="M1222 1925 l-2 -151 -130 -74 c-71 -41 -130 -76 -130 -80 0 -3 48
-33 108 -67 160 -92 202 -115 202 -110 0 2 -65 42 -145 87 -80 46 -145 87
-145 91 0 4 48 34 108 68 159 89 143 62 139 236 l-3 150 -2 -150z"/>
<path d="M1335 1916 l0 -148 123 -71 c67 -39 122 -74 122 -77 0 -3 -65 -43
-145 -89 -80 -46 -145 -86 -145 -88 0 -5 38 15 201 110 60 34 109 64 109 67 0
3 -58 39 -130 80 l-129 74 -4 146 -3 145 1 -149z"/>
</g>
</svg>
